<?xml version="1.0" encoding="UTF-8"?>
<svg id="Layer_2"
    xmlns="http://www.w3.org/2000/svg" viewBox="0 0 144 144">
    <defs>
        <style>.cls-1{fill:#ffb544;}.cls-2{fill:#e5e5e5;}.cls-3{fill:#6b9ad1;}</style>
    </defs>
    <g id="Layer_1-2">
        <circle class="cls-3" cx="72" cy="72" r="72"/>
        <circle class="cls-1" cx="50" cy="54" r="24"/>
        <path class="cls-2" d="M71.2,65.64c.61-2.03,2.33-6.72,6.92-10.41,.79-.63,9.18-7.15,18.74-3.76,10.18,3.6,12.25,15.09,12.49,16.61,.31,1.9,.3,3.52,.22,4.65,1.64-.01,8.19,.14,13.61,5.09,1.14,1.05,4.48,5.33,4.82,11.18,.38,6.66-3.55,13.06-11.29,16.28-24.91,.07-49.83,.15-74.74,.22-5.78-1.88-9.43-7.34-8.92-12.84,.59-6.39,6.68-11.59,13.83-11.07-1.6-5.95,.34-12.22,4.91-15.94,5.38-4.39,13.49-4.48,19.41,0Z"/>
    </g>
</svg>